<svg id="store" xmlns="http://www.w3.org/2000/svg" viewBox="0 0 24 24" class="icon line" width="32" height="32"><path id="primary" d="M19,13v7a1,1,0,0,1-1,1H6a1,1,0,0,1-1-1V13" style="fill: none; stroke: currentColor; stroke-linecap: round; stroke-linejoin: round; stroke-width: 1.3;"></path><path id="primary-2" data-name="primary" d="M12,3h6.25a1,1,0,0,1,1,.73l1.58,5.55A5.22,5.22,0,0,1,21,10.75h0A2.25,2.25,0,0,1,18.75,13h0a2.25,2.25,0,0,1-2.25-2.25A2.25,2.25,0,0,1,14.25,13h0A2.25,2.25,0,0,1,12,10.75" style="fill: none; stroke: currentColor; stroke-linecap: round; stroke-linejoin: round; stroke-width: 1.3;"></path><path id="primary-3" data-name="primary" d="M12,3H5.75a1,1,0,0,0-1,.73L3.21,9.28A5.22,5.22,0,0,0,3,10.75H3A2.25,2.25,0,0,0,5.25,13h0A2.25,2.25,0,0,0,7.5,10.75,2.25,2.25,0,0,0,9.75,13h0A2.25,2.25,0,0,0,12,10.75" style="fill: none; stroke: currentColor; stroke-linecap: round; stroke-linejoin: round; stroke-width: 1.3;"></path></svg>